<mxfile host="app.diagrams.net" modified="2023-04-12T10:41:14.154Z" agent="Mozilla/5.0 (X11; Linux x86_64; rv:95.0) Gecko/20100101 Firefox/95.0" version="21.1.5" etag="8WWheRitXRRymq_oIrvi" type="github">
  <diagram name="PÃ¡gina-1" id="GC7nVx1GOpoeLkMBor0G">
    <mxGraphModel>
      <root>
        <mxCell id="0" />
        <mxCell id="1" parent="0" />
      </root>
    </mxGraphModel>
  </diagram>
</mxfile>
